<svg width="1440" height="810" viewBox="0 0 1440 810" fill="none" xmlns="http://www.w3.org/2000/svg">
<g clip-path="url(#clip0)">
<rect width="1440" height="810" fill="#F0FDFA"/>
<g clip-path="url(#clip1)">
<path d="M1591.49 280.966C1529.15 232.034 1422.09 242.577 1296.26 309.516C1291.53 303.391 1286.75 297.414 1281.92 291.638C1289.64 276.993 1292.12 260.15 1288.95 243.901C1285.79 227.652 1277.16 212.972 1264.51 202.297C1251.86 191.621 1235.94 185.59 1219.39 185.204C1202.84 184.817 1186.65 190.098 1173.52 200.172C1136.26 181.436 1100.37 176.458 1066.7 185.481C1028.02 195.844 996.088 223.523 971.779 267.749C951.413 304.794 937.372 351.827 929.906 407.678C787.468 412.624 689.482 457.024 659.958 530.568C626.372 614.212 686.729 719.908 821.669 815.134C817.892 823.314 814.296 831.461 810.882 839.574C794.968 839.416 779.443 844.492 766.696 854.022C753.95 863.552 744.689 877.006 740.338 892.315C735.988 907.624 736.79 923.939 742.62 938.747C748.451 953.556 758.987 966.038 772.606 974.272C763.045 1050.5 780.65 1108.46 823.9 1142.42C865.841 1175.33 927.998 1181.35 1002.51 1161.38C1038.76 1151.67 1077.94 1135.78 1119.13 1113.87C1153.52 1158.5 1189.2 1192.22 1225.36 1214.12C1268.53 1240.28 1310.02 1248.28 1348.7 1237.92C1387.37 1227.55 1419.31 1199.87 1443.62 1155.65C1463.98 1118.61 1478.02 1071.58 1485.49 1015.74C1495.45 1015.39 1505.24 1014.84 1514.85 1014.1C1521.21 1030.1 1533.04 1043.31 1548.24 1051.39C1563.44 1059.48 1581.01 1061.9 1597.83 1058.23C1614.64 1054.56 1629.61 1045.04 1640.06 1031.36C1650.51 1017.68 1655.76 1000.74 1654.88 983.546C1705.38 962.388 1740.04 931.239 1755.44 892.828C1789.02 809.187 1728.68 703.489 1593.73 608.261C1662.98 458.318 1662.4 336.608 1591.49 280.966ZM1569.07 309.535C1624.23 352.821 1621.59 458.41 1563.16 587.698C1513.18 555.938 1460.62 528.442 1406.03 505.501C1380.68 443.876 1350.47 386.935 1317.82 339.218C1426.89 282.262 1519.95 270.986 1569.07 309.537L1569.07 309.535ZM1452.81 979.848C1408.48 979.391 1364.23 975.789 1320.4 969.069C1353.09 939.317 1384.23 907.901 1413.69 874.946C1426.4 860.746 1438.74 846.324 1450.72 831.679C1455.8 880.909 1456.51 930.493 1452.82 979.848L1452.81 979.848ZM1129.48 1066.49C1101.61 1025.59 1077.43 982.292 1057.21 937.115C1074.87 943.782 1092.77 950.101 1110.91 956.073C1152.91 969.884 1195.58 981.522 1238.77 990.941C1204.18 1018.67 1167.66 1043.92 1129.49 1066.48L1129.48 1066.49ZM962.564 443.549C1006.9 444.006 1051.15 447.608 1094.98 454.328C1062.29 484.08 1031.15 515.496 1001.68 548.451C988.98 562.651 976.639 577.073 964.661 591.718C959.581 542.487 958.882 492.903 962.573 443.549L962.564 443.549ZM1122.24 921.57C1093.34 912.079 1064.85 901.559 1037.4 890.279C1006.03 810.33 983.731 727.111 970.927 642.185C989.054 618.695 1008.47 595.337 1028.75 572.668C1063.73 533.509 1101.18 496.618 1140.85 462.218C1192.41 472.174 1243.28 485.404 1293.15 501.827C1322.05 511.318 1350.54 521.838 1377.98 533.117C1393.68 573.054 1407.1 613.846 1418.19 655.298C1429.31 696.741 1438.08 738.779 1444.46 781.211C1426.33 804.701 1406.92 828.06 1386.64 850.729C1351.66 889.887 1314.22 926.778 1274.55 961.178C1222.99 951.222 1172.12 937.993 1122.25 921.57L1122.24 921.57ZM991.014 870.042C948.486 850.555 907.407 828.049 868.093 802.695C889.468 761.078 913.793 721.042 940.879 682.894C946.608 714.36 953.698 746.03 962.13 777.498C970.562 808.966 980.254 839.927 991.023 870.042L991.014 870.042ZM1285.91 356.911C1313.78 397.812 1337.96 441.105 1358.17 486.282C1340.52 479.614 1322.62 473.295 1304.47 467.324C1262.48 453.513 1219.81 441.875 1176.62 432.456C1211.21 404.722 1247.74 379.477 1285.91 356.911ZM1424.37 553.354C1466.9 572.841 1507.99 595.348 1547.3 620.701C1525.93 662.319 1501.6 702.354 1474.52 740.502C1468.79 709.036 1461.7 677.366 1453.27 645.898C1444.83 614.431 1435.14 583.47 1424.37 553.354ZM1252.76 248.424C1254.62 255.363 1254.38 262.697 1252.07 269.499C1249.77 276.3 1245.49 282.265 1239.79 286.638C1234.09 291.011 1227.23 293.595 1220.06 294.065C1212.89 294.535 1205.74 292.869 1199.52 289.277C1193.3 285.686 1188.29 280.33 1185.11 273.888C1181.93 267.445 1180.74 260.205 1181.67 253.084C1182.61 245.962 1185.64 239.278 1190.38 233.878C1195.11 228.477 1201.34 224.602 1208.28 222.743C1217.59 220.262 1227.49 221.572 1235.83 226.387C1244.17 231.201 1250.26 239.127 1252.76 248.424ZM1076.1 220.562C1099.05 214.412 1124.13 217.464 1150.82 229.559C1144.76 243.87 1143.45 259.748 1147.09 274.858C1150.72 289.969 1159.11 303.514 1171.02 313.5C1182.93 323.486 1197.73 329.387 1213.24 330.334C1228.75 331.281 1244.16 327.225 1257.2 318.761C1259.55 321.637 1261.9 324.556 1264.24 327.519C1217.1 355.758 1172.35 387.805 1130.43 423.338C1076.36 413.521 1021.57 408.143 966.613 407.256C981.526 302.951 1020.92 235.347 1076.1 220.562ZM693.661 544.099C716.925 486.166 803.15 449.39 926.093 444.182C921.68 501.821 923.975 566.23 932.84 632.27C897.038 679.441 865.265 729.54 837.858 782.035C722.612 699.295 667.535 609.168 693.661 544.099ZM800.824 877.12C807.763 875.26 815.096 875.501 821.898 877.81C828.7 880.118 834.665 884.393 839.038 890.091C843.411 895.79 845.995 902.658 846.465 909.825C846.935 916.993 845.269 924.139 841.677 930.36C838.085 936.581 832.73 941.597 826.287 944.774C819.845 947.951 812.605 949.146 805.484 948.209C798.362 947.271 791.678 944.243 786.278 939.507C780.877 934.77 777.002 928.539 775.143 921.601C772.662 912.297 773.972 902.389 778.787 894.05C783.601 885.712 791.526 879.623 800.824 877.12ZM846.331 1113.86C807.769 1083.58 803.184 1030.01 807.945 984.794C824.145 985.311 840.052 980.392 853.132 970.822C866.213 961.251 875.715 947.578 880.125 931.982C884.535 916.385 883.599 899.762 877.467 884.759C871.335 869.755 860.358 857.235 846.287 849.193C848.203 844.708 850.184 840.207 852.231 835.691C902.21 867.456 954.775 894.956 1009.37 917.9C1034.71 979.525 1064.93 1036.47 1097.58 1084.18C988.51 1141.14 895.446 1152.41 846.331 1113.86ZM1339.3 1202.83C1284.12 1217.62 1216.2 1178.77 1151.13 1095.89C1198.28 1067.65 1243.04 1035.6 1284.96 1000.06C1339.04 1009.87 1393.83 1015.25 1448.78 1016.14C1433.87 1120.45 1394.48 1188.05 1339.3 1202.83ZM1591.75 1022.39C1584.81 1024.25 1577.47 1024.01 1570.67 1021.7C1563.87 1019.39 1557.91 1015.12 1553.53 1009.42C1549.16 1003.72 1546.58 996.853 1546.11 989.685C1545.64 982.518 1547.3 975.372 1550.89 969.151C1554.49 962.93 1559.84 957.914 1566.28 954.737C1572.73 951.56 1579.97 950.365 1587.09 951.302C1594.21 952.24 1600.89 955.268 1606.29 960.004C1611.69 964.74 1615.57 970.972 1617.43 977.91C1619.91 987.214 1618.6 997.122 1613.78 1005.46C1608.97 1013.8 1601.05 1019.89 1591.75 1022.39ZM1721.73 879.305C1710.32 907.766 1683.55 931.568 1643.92 948.768C1635.97 936.083 1624.3 926.163 1610.5 920.363C1596.7 914.564 1581.45 913.169 1566.83 916.37C1552.21 919.57 1538.93 927.209 1528.81 938.242C1518.7 949.275 1512.24 963.164 1510.32 978.008C1503.43 978.519 1496.43 978.92 1489.3 979.209C1493.72 921.573 1491.42 857.164 1482.56 791.126C1518.36 743.955 1550.13 693.857 1577.54 641.362C1692.78 724.101 1747.86 814.229 1721.73 879.305Z" fill="#99F6E4"/>
<path d="M1170.1 571.373C1142.34 578.81 1117.42 594.31 1098.47 615.912C1079.53 637.514 1067.42 664.249 1063.67 692.736C1059.92 721.223 1064.7 750.182 1077.41 775.952C1090.11 801.721 1110.18 823.143 1135.06 837.51C1159.94 851.876 1188.53 858.541 1217.2 856.662C1245.87 854.783 1273.34 844.444 1296.14 826.952C1318.93 809.461 1336.03 785.603 1345.26 758.395C1354.5 731.187 1355.46 701.852 1348.02 674.098C1338.01 636.906 1313.66 605.203 1280.3 585.945C1246.95 566.687 1207.31 561.447 1170.1 571.373ZM1235.9 816.942C1215.08 822.519 1193.08 821.799 1172.68 814.872C1152.27 807.945 1134.38 795.123 1121.26 778.026C1108.14 760.93 1100.38 740.328 1098.98 718.824C1097.57 697.321 1102.56 675.882 1113.34 657.22C1124.11 638.558 1140.18 623.509 1159.51 613.978C1178.84 604.447 1200.55 600.861 1221.92 603.674C1243.28 606.487 1263.34 615.572 1279.54 629.781C1295.74 643.989 1307.36 662.683 1312.94 683.498C1320.39 711.409 1316.46 741.134 1302.01 766.15C1287.57 791.167 1263.79 809.433 1235.9 816.942Z" fill="#99F6E4"/>
</g>
</g>
<defs>
<clipPath id="clip0">
<rect width="1440" height="810" fill="white"/>
</clipPath>
<clipPath id="clip1">
<rect width="1162.2" height="1162.2" fill="white" transform="translate(496 300.799) rotate(-15)"/>
</clipPath>
</defs>
</svg>
