<svg width="712" height="318" viewBox="0 0 712 318" fill="none" xmlns="http://www.w3.org/2000/svg">
<path d="M263.397 60.6491L170.055 6.81762C154.293 -2.27285 134.707 -2.27223 118.945 6.81762L25.6038 60.6491C9.8105 69.7564 0 86.741 0 104.974V212.553C0 230.786 9.81049 247.771 25.6032 256.878L118.945 310.71C134.71 319.802 154.295 319.799 170.055 310.71L263.396 256.878C279.189 247.771 289 230.786 289 212.553V104.974C289 86.7416 279.19 69.757 263.397 60.6491ZM264.193 212.553C264.193 221.945 259.14 230.694 251.005 235.385L157.663 289.217C149.543 293.9 139.456 293.9 131.336 289.217L37.9948 235.385C29.86 230.693 24.8069 221.945 24.8069 212.553V104.974C24.8069 95.5828 29.86 86.834 37.9954 82.1431L131.336 28.3115C139.457 23.628 149.547 23.6299 157.664 28.3115L251.005 82.1424C259.14 86.834 264.193 95.5822 264.193 104.974V212.553Z" fill="#2DD4BF"/>
<path d="M132.713 149.293L86.6461 110.308C81.4174 105.882 73.5902 106.534 69.1653 111.764C64.7404 116.995 65.3928 124.822 70.6221 129.248L105.499 158.764L70.6221 188.28C65.3928 192.705 64.741 200.533 69.1653 205.763C73.6008 211.005 81.4298 211.634 86.6461 207.219L132.713 168.233C138.574 163.274 138.557 154.239 132.713 149.293Z" fill="#2DD4BF"/>
<path d="M210.366 185.344H154.554C147.703 185.344 142.15 190.898 142.15 197.749C142.15 204.601 147.703 210.155 154.554 210.155H210.366C217.216 210.155 222.769 204.601 222.769 197.749C222.769 190.898 217.216 185.344 210.366 185.344Z" fill="#2DD4BF"/>
<path d="M324.835 123.528H330.102V108.306H344.932V103.789H330.102V93.1529H346.483V88.6188H324.835V123.528ZM389.809 88.6188V111.153C389.809 115.892 386.536 119.301 381.218 119.301C375.917 119.301 372.627 115.892 372.627 111.153V88.6188H367.36V111.579C367.36 118.909 372.849 124.107 381.218 124.107C389.588 124.107 395.093 118.909 395.093 111.579V88.6188H389.809ZM417.151 123.528H438.236V118.994H422.418V88.6188H417.151V123.528ZM458.645 123.528H479.73V118.994H463.912V88.6188H458.645V123.528ZM519.178 97.7893H524.258C524.104 92.1983 519.161 88.1415 512.07 88.1415C505.064 88.1415 499.695 92.1472 499.695 98.1643C499.695 103.022 503.172 105.869 508.78 107.386L512.905 108.511C516.638 109.499 519.519 110.727 519.519 113.829C519.519 117.238 516.263 119.488 511.78 119.488C507.724 119.488 504.349 117.681 504.042 113.88H498.758C499.099 120.204 503.991 124.107 511.814 124.107C520.013 124.107 524.735 119.795 524.735 113.88C524.735 107.59 519.127 105.153 514.695 104.062L511.286 103.176C508.559 102.477 504.928 101.198 504.945 97.8574C504.945 94.8915 507.655 92.6927 511.951 92.6927C515.957 92.6927 518.803 94.5677 519.178 97.7893ZM543.707 93.1529H554.582V123.528H559.832V93.1529H570.724V88.6188H543.707V93.1529ZM589.872 123.528L593.076 114.289H606.712L609.9 123.528H615.491L602.928 88.6188H596.843L584.281 123.528H589.872ZM594.61 109.857L599.758 94.9597H600.031L605.178 109.857H594.61ZM662.286 99.9711C661.093 92.5052 655.246 88.1415 647.865 88.1415C638.831 88.1415 632.166 94.9086 632.166 106.073C632.166 117.238 638.797 124.005 647.865 124.005C655.536 124.005 661.144 119.198 662.286 112.295L656.968 112.278C656.064 116.744 652.314 119.198 647.899 119.198C641.916 119.198 637.399 114.613 637.399 106.073C637.399 97.6018 641.899 92.9483 647.916 92.9483C652.365 92.9483 656.098 95.454 656.968 99.9711H662.286ZM682.988 123.528H688.255V112.67L692.38 107.931L703.665 123.528H710.005L695.875 104.335L709.954 88.6188H703.324L688.682 105.289H688.255V88.6188H682.988V123.528Z" fill="#64748B"/>
<path d="M383.818 179.528H403.818C401.273 161.119 385.045 148.164 364 148.164C339.409 148.164 320.455 165.892 320.455 196.073C320.455 225.528 338.182 243.801 364.409 243.801C387.909 243.801 404.682 228.937 404.682 204.437V192.71H365.727V207.528H385.727C385.455 219.073 377.591 226.392 364.5 226.392C349.727 226.392 340.409 215.346 340.409 195.892C340.409 176.528 350.091 165.573 364.318 165.573C374.455 165.573 381.318 170.801 383.818 179.528ZM419.466 242.528H482.375V226.301H439.148V204.073H478.966V187.846H439.148V165.664H482.193V149.437H419.466V242.528ZM575.705 149.437H556.114V207.982H555.295L515.114 149.437H497.841V242.528H517.523V183.937H518.205L558.705 242.528H575.705V149.437ZM611.648 149.437H591.966V242.528H611.648V149.437ZM646.295 149.437H623.977L652.568 195.982L623.432 242.528H645.977L665.068 210.755H665.795L684.886 242.528H707.523L678.477 195.982L706.886 149.437H684.659L665.795 181.164H665.068L646.295 149.437Z" fill="#1E293B"/>
</svg>
